<?xml version="1.0" encoding="UTF-8" standalone="no"?>
<svg
   xmlns:dc="http://purl.org/dc/elements/1.1/"
   xmlns:cc="http://creativecommons.org/ns#"
   xmlns:rdf="http://www.w3.org/1999/02/22-rdf-syntax-ns#"
   xmlns:svg="http://www.w3.org/2000/svg"
   xmlns="http://www.w3.org/2000/svg"
   xmlns:sodipodi="http://sodipodi.sourceforge.net/DTD/sodipodi-0.dtd"
   xmlns:inkscape="http://www.inkscape.org/namespaces/inkscape"
   inkscape:export-ydpi="134.99022"
   inkscape:export-xdpi="134.99022"
   inkscape:export-filename="/Users/sbonaretti/Dropbox/Work/5.c_as_in_coding/courses/book/website/MyResume/assets/img/chanapple-touch-icon.png"
   height="180"
   width="180"
   inkscape:version="1.0 (4035a4f, 2020-05-01)"
   sodipodi:docname="apple-touch-icon2.svg"
   xml:space="preserve"
   viewBox="0 0 179.99999 180"
   y="0px"
   x="0px"
   id="Livello_1"
   version="1.1"><metadata
   id="metadata1130"><rdf:RDF><cc:Work
       rdf:about=""><dc:format>image/svg+xml</dc:format><dc:type
         rdf:resource="http://purl.org/dc/dcmitype/StillImage" /><dc:title></dc:title></cc:Work></rdf:RDF></metadata><defs
   id="defs1128" /><sodipodi:namedview
   units="px"
   inkscape:current-layer="Livello_1"
   inkscape:window-maximized="1"
   inkscape:window-y="25"
   inkscape:window-x="46"
   inkscape:cy="465.28966"
   inkscape:cx="431.21286"
   inkscape:zoom="0.81104574"
   showgrid="false"
   id="namedview1126"
   inkscape:window-height="1027"
   inkscape:window-width="1874"
   inkscape:pageshadow="2"
   inkscape:pageopacity="0"
   guidetolerance="10"
   gridtolerance="10"
   objecttolerance="10"
   borderopacity="1"
   bordercolor="#666666"
   pagecolor="#ffffff" />
<style
   id="style833"
   type="text/css">
	.st0{fill:#EDEDED;}
	.st1{fill:#3C3C3B;}
	.st2{fill:#F39200;}
	.st3{fill:#ED6C4F;}
	.st4{fill:none;}
	.st5{enable-background:new    ;}
	.st6{fill:#F39208;}
	.st7{fill:none;stroke:#C21A18;stroke-width:0.25;stroke-miterlimit:10;}
	.st8{fill:#3C3C3B;stroke:#C21A18;stroke-width:0.25;stroke-miterlimit:10;}
</style>















































<g
   id="g1115">
	<g
   id="g1113">
		<polygon
   id="polygon1109"
   points=""
   class="st6" />
		<polygon
   id="polygon1111"
   points=""
   class="st6" />
	</g>
</g>



<g
   transform="matrix(0.22764639,0,0,0.22764639,20.306058,-2.8650004e-7)"
   id="g1188"><path
     class="st0"
     d="m 485.9,272.3 c 0,14.8 -4.5,23.3 -13.4,25.3 -2.4,0.6 -5.1,0.7 -8.1,0.4 -0.3,0 -0.5,-0.1 -0.8,-0.1 -0.2,0 -0.5,-0.1 -0.8,-0.1 -0.6,-0.1 -1.2,-0.2 -1.8,-0.3 -0.3,-0.1 -0.6,-0.1 -0.9,-0.2 -0.5,-0.1 -1,-0.2 -1.5,-0.4 -0.3,-0.1 -0.6,-0.1 -0.8,-0.2 -3.3,-0.9 -6.9,-2.2 -10.8,-3.9 -0.4,-0.2 -0.8,-0.3 -1.2,-0.5 -0.4,-0.2 -0.8,-0.3 -1.2,-0.5 -0.9,-0.4 -1.8,-0.9 -2.8,-1.3 -0.4,-0.2 -0.8,-0.4 -1.2,-0.6 -1.4,-0.7 -2.8,-1.5 -4.3,-2.3 -0.3,-0.1 -0.5,-0.3 -0.8,-0.4 -0.8,-0.4 -1.5,-0.9 -2.3,-1.3 v 0 l -13.7,-8 -2.2,-1.3 -49.4,-28.9 0.2,-88.7 51.6,30.1 -0.1,28.1 v 0 l 63.7,37.2 v 0 0 c 0.3,1.2 0.6,2.4 0.8,3.6 0.1,0.5 0.2,1.1 0.3,1.6 0,0.2 0.1,0.5 0.1,0.8 0.1,0.3 0.1,0.6 0.1,0.9 0.1,0.4 0.1,0.9 0.2,1.3 0,0.3 0.1,0.6 0.1,0.9 0,0.4 0.1,0.7 0.1,1.1 0,0.4 0.1,0.8 0.1,1.2 0.1,0.6 0.1,1.2 0.1,1.8 0,0.5 0.1,1 0.1,1.4 0,0.3 0,0.7 0,1 0.6,0.7 0.6,1.5 0.6,2.3 z"
     id="path1005" /><path
     class="st4"
     d="m 483.8,254.5 c 0.1,0.5 0.3,1.1 0.4,1.6 0.1,0.6 0.3,1.3 0.4,1.9 -0.3,-1.2 -0.5,-2.4 -0.8,-3.5 z m 0,0 c 0.1,0.5 0.3,1.1 0.4,1.6 0.1,0.6 0.3,1.3 0.4,1.9 -0.3,-1.2 -0.5,-2.4 -0.8,-3.5 z m 18,9.1 z m -18,-9.1 c 0.1,0.5 0.3,1.1 0.4,1.6 0.1,0.6 0.3,1.3 0.4,1.9 -0.3,-1.2 -0.5,-2.4 -0.8,-3.5 z"
     id="path1007" /><g
     class="st5"
     id="g1059">
	<path
   class="st3"
   d="m 135.6,704.5 c -0.1,0 -0.2,-0.1 -0.3,-0.1 0.1,0 0.2,0 0.3,0.1 z"
   id="path1009" />
	<path
   class="st3"
   d="m 136.1,704.6 c -0.1,0 -0.2,0 -0.4,-0.1 0,0 -0.1,0 -0.1,0 v 0 0 c 0.1,0 0.3,0 0.5,0.1 z"
   id="path1011" />
	<path
   class="st3"
   d="m 137.3,704.9 c -0.1,0 -0.1,0 -0.2,0 0.1,-0.1 0.1,-0.1 0.2,0 -0.1,-0.1 0,-0.1 0,0 z"
   id="path1013" />
	<path
   class="st3"
   d="m 137.7,704.9 c -0.1,0 -0.2,0 -0.4,-0.1 v 0 c 0.1,0.1 0.2,0.1 0.4,0.1 z"
   id="path1015" />
	<path
   class="st3"
   d="m 141.3,705.1 c -0.2,0 -0.3,0 -0.5,0 0.2,0 0.4,0 0.5,0 z"
   id="path1017" />
	<path
   class="st3"
   d="m 141.4,705.1 v 0 0 c 0,0 0,0 0,0 z"
   id="path1019" />
	<path
   class="st3"
   d="m 141.5,705.1 c 0.7,0 1.4,-0.1 2.2,-0.2 -0.8,0.1 -1.5,0.2 -2.2,0.2 z"
   id="path1021" />
	<path
   class="st3"
   d="m 143.9,704.8 c -0.1,0 -0.2,0 -0.3,0 0.1,0.1 0.2,0 0.3,0 z"
   id="path1023" />
	<path
   class="st3"
   d="m 144.3,704.8 c -0.1,0 -0.2,0 -0.3,0.1 v 0 c 0.1,-0.1 0.2,-0.1 0.3,-0.1 z"
   id="path1025" />
	<path
   class="st3"
   d="m 176.8,685.7 c -0.1,0.1 -0.1,0.1 -0.2,0.2 0.1,-0.1 0.1,-0.1 0.2,-0.2 z"
   id="path1027" />
	<path
   class="st3"
   d="m 177.3,685.2 c -0.2,0.2 -0.4,0.4 -0.5,0.5 v 0 c 0.2,-0.2 0.4,-0.4 0.5,-0.5 z"
   id="path1029" />
	<path
   class="st3"
   d="m 180.6,681.6 c -0.3,0.4 -0.6,0.7 -0.9,1.1 0.3,-0.4 0.6,-0.8 0.9,-1.1 z"
   id="path1031" />
	<path
   class="st3"
   d="m 181.1,681.1 c -0.1,0.1 -0.2,0.2 -0.3,0.4 0,0 -0.1,0.1 -0.1,0.1 v 0 c 0.1,-0.2 0.2,-0.4 0.4,-0.5 z"
   id="path1033" />
	<path
   class="st3"
   d="m 185.3,675.6 c -0.1,0.1 -0.1,0.2 -0.2,0.2 0,0 0.1,-0.1 0.2,-0.2 z"
   id="path1035" />
	<path
   class="st3"
   d="m 185.6,675 c -0.1,0.2 -0.2,0.4 -0.4,0.6 v 0 c 0.2,-0.2 0.3,-0.4 0.4,-0.6 z"
   id="path1037" />
	<path
   class="st3"
   d="m 187,673 c -0.1,0.2 -0.2,0.3 -0.3,0.5 0.1,-0.2 0.2,-0.4 0.3,-0.5 z"
   id="path1039" />
	<path
   class="st3"
   d="m 187.3,672.5 c -0.1,0.2 -0.2,0.3 -0.3,0.5 v 0 c 0.1,-0.2 0.2,-0.4 0.3,-0.5 z"
   id="path1041" />
	<path
   class="st3"
   d="m 188.6,670.4 c -0.1,0.2 -0.2,0.4 -0.4,0.6 0.1,-0.2 0.2,-0.4 0.4,-0.6 z"
   id="path1043" />
	<path
   class="st3"
   d="m 188.7,670.2 c 0,0.1 -0.1,0.1 -0.1,0.2 v 0 c 0,0 0,0 0,0 0,-0.1 0,-0.2 0.1,-0.2 z"
   id="path1045" />
	<path
   class="st3"
   d="m 190,667.8 c 0,0.1 -0.1,0.2 -0.1,0.2 0,-0.1 0.1,-0.1 0.1,-0.2 0,0 0,0 0,0 z"
   id="path1047" />
	<path
   class="st3"
   d="m 190.4,667 c -0.1,0.3 -0.3,0.5 -0.4,0.8 v 0 c 0.2,-0.3 0.3,-0.6 0.4,-0.8 z"
   id="path1049" />
	<path
   class="st3"
   d="m 194,659 c -0.1,0.1 -0.1,0.2 -0.2,0.4 0.1,-0.2 0.1,-0.3 0.2,-0.4 z"
   id="path1051" />
	<path
   class="st3"
   d="m 194.4,657.7 c -0.2,0.4 -0.3,0.9 -0.5,1.3 v 0 c 0.2,-0.4 0.4,-0.9 0.5,-1.3 z"
   id="path1053" />
	<path
   class="st3"
   d="m 195.3,655.4 c 0,0.1 -0.1,0.2 -0.1,0.3 0,-0.1 0,-0.3 0.1,-0.3 z"
   id="path1055" />
	<path
   class="st3"
   d="m 195.4,655 c 0,0.1 -0.1,0.2 -0.1,0.4 v 0 c 0,-0.2 0,-0.3 0.1,-0.4 z"
   id="path1057" />
</g><path
     class="st3"
     d="m 133.3,645.5 c 0.4,-0.6 0.8,-1.2 1.2,-1.8 -0.3,0.5 -0.7,1 -1,1.5 -0.1,0.1 -0.1,0.2 -0.2,0.3 z"
     id="path1061" /><path
     class="st3"
     d="m 134.6,643.6 c 0.4,-0.6 0.8,-1.3 1.2,-2 -0.2,0.3 -0.3,0.6 -0.5,0.9 -0.3,0.4 -0.5,0.8 -0.7,1.1 z"
     id="path1063" /><path
     class="st3"
     d="m 136.2,641 c 0.4,-0.7 0.8,-1.3 1.2,-2 -0.2,0.3 -0.4,0.7 -0.5,1 -0.3,0.3 -0.5,0.6 -0.7,1 z"
     id="path1065" /><path
     class="st3"
     d="m 137.4,639 c 0.4,-0.7 0.7,-1.3 1.1,-2 -0.1,0.1 -0.1,0.3 -0.2,0.4 -0.3,0.5 -0.6,1 -0.9,1.6 z"
     id="path1067" /><path
     class="st3"
     d="m 138.7,636.5 c 0.4,-0.8 0.8,-1.5 1.1,-2.3 0,0.1 -0.1,0.2 -0.2,0.4 -0.3,0.7 -0.6,1.3 -0.9,1.9 z"
     id="path1069" /><path
     class="st3"
     d="m 143.1,626.2 c 0.3,-0.8 0.5,-1.5 0.8,-2.3 -0.1,0.3 -0.2,0.7 -0.3,1 -0.2,0.5 -0.4,0.9 -0.5,1.3 z"
     id="path1071" /><path
     class="st3"
     d="m 147.3,608.9 c 0.1,-0.9 0.3,-1.9 0.4,-2.8 0,0.1 0,0.2 0,0.3 -0.2,0.8 -0.3,1.7 -0.4,2.5 z"
     id="path1073" /><g
     id="g1077">
	<path
   class="st3"
   d="m 200.4,619.8 v 0.7 c 0,0.9 0,1.7 0,2.5 0,0.3 0,0.6 0,0.9 0,1 -0.1,2 -0.1,3 0,1 -0.1,2.1 -0.2,3.1 -0.1,1.8 -0.3,3.6 -0.5,5.4 0,0.5 -0.1,1 -0.2,1.4 -0.1,1.2 -0.3,2.3 -0.5,3.5 -0.1,0.5 -0.2,1 -0.3,1.5 -0.6,3.4 -1.3,6.7 -2.2,9.9 -0.2,0.6 -0.3,1.2 -0.5,1.8 0,0.1 -0.1,0.2 -0.1,0.3 0,0.2 -0.1,0.4 -0.2,0.6 0,0 0,0 0,0.1 -0.1,0.2 -0.1,0.4 -0.2,0.6 0,0.1 -0.1,0.2 -0.1,0.3 -0.1,0.3 -0.2,0.5 -0.3,0.8 0,0 0,0 0,0 -0.1,0.3 -0.2,0.6 -0.3,0.8 -0.1,0.2 -0.1,0.4 -0.2,0.7 -0.2,0.4 -0.3,0.9 -0.5,1.3 v 0 c 0,0.1 -0.1,0.2 -0.1,0.4 -0.3,0.7 -0.5,1.4 -0.8,2.1 -0.1,0.3 -0.2,0.6 -0.3,0.8 -0.2,0.5 -0.5,1.1 -0.7,1.6 0,0 0,0.1 0,0.1 -0.2,0.4 -0.3,0.8 -0.5,1.1 -0.3,0.6 -0.6,1.3 -0.9,1.9 -0.1,0.3 -0.3,0.5 -0.4,0.8 0,0 0,0 0,0 0,0.1 -0.1,0.1 -0.1,0.2 -0.1,0.2 -0.2,0.4 -0.3,0.6 0,0 0,0.1 0,0.1 -0.2,0.4 -0.4,0.8 -0.7,1.2 0,0 0,0 0,0 0,0 0,0 0,0 -0.1,0.1 -0.2,0.3 -0.2,0.4 0,0 0,0 0,0 -0.1,0.2 -0.2,0.4 -0.4,0.6 -0.2,0.3 -0.4,0.6 -0.6,1 -0.1,0.2 -0.2,0.4 -0.3,0.5 -0.1,0.2 -0.2,0.3 -0.3,0.5 -0.1,0.2 -0.2,0.3 -0.3,0.5 l -0.4,0.6 c -0.2,0.3 -0.4,0.7 -0.7,1 -0.1,0.2 -0.3,0.4 -0.4,0.5 -0.1,0.1 -0.1,0.2 -0.2,0.3 -0.1,0.1 -0.1,0.2 -0.2,0.3 0,0 0,0.1 -0.1,0.1 0,0 0,0 0,0.1 -0.5,0.7 -1,1.4 -1.5,2.1 0,0 0,0 -0.1,0.1 -0.4,0.6 -0.9,1.2 -1.4,1.7 -0.2,0.3 -0.5,0.6 -0.7,0.9 -0.1,0.1 -0.2,0.2 -0.3,0.4 0,0 -0.1,0.1 -0.1,0.1 -0.3,0.4 -0.6,0.7 -0.9,1.1 -0.6,0.6 -1.1,1.2 -1.7,1.8 -0.2,0.2 -0.4,0.5 -0.7,0.7 -0.2,0.2 -0.4,0.4 -0.6,0.5 -0.1,0.1 -0.1,0.1 -0.2,0.2 -0.1,0.1 -0.3,0.3 -0.4,0.4 -0.2,0.2 -0.3,0.3 -0.5,0.5 -0.5,0.5 -1.1,1 -1.6,1.5 -0.1,0.1 -0.2,0.2 -0.4,0.3 -0.5,0.5 -1.1,1 -1.6,1.4 -0.2,0.2 -0.5,0.4 -0.7,0.6 -0.5,0.4 -0.9,0.8 -1.4,1.1 -0.1,0.1 -0.2,0.2 -0.4,0.3 -0.4,0.3 -0.9,0.7 -1.3,1 -0.4,0.3 -0.9,0.7 -1.3,1 -0.6,0.4 -1.2,0.9 -1.8,1.3 -0.5,0.3 -1,0.7 -1.6,1 -0.1,0 -0.1,0.1 -0.2,0.1 -0.3,0.2 -0.5,0.3 -0.8,0.5 -0.1,0 -0.2,0.1 -0.2,0.1 -0.7,0.4 -1.4,0.8 -2.1,1.3 -0.4,0.2 -0.9,0.5 -1.3,0.7 -0.3,0.2 -0.7,0.4 -1.1,0.6 -0.2,0.1 -0.4,0.2 -0.6,0.3 -0.4,0.2 -0.7,0.4 -1.1,0.6 -0.6,0.3 -1.3,0.6 -1.9,0.9 -0.6,0.3 -1.3,0.6 -1.9,0.8 -0.4,0.2 -0.9,0.4 -1.3,0.5 -0.3,0.1 -0.6,0.2 -0.9,0.3 -0.2,0.1 -0.5,0.2 -0.7,0.2 -0.2,0.1 -0.4,0.1 -0.6,0.2 -0.5,0.2 -1.1,0.3 -1.6,0.5 -0.1,0 -0.1,0 -0.2,0 -0.3,0.1 -0.6,0.2 -1,0.2 -0.3,0.1 -0.5,0.1 -0.8,0.2 -0.4,0.1 -0.7,0.2 -1.1,0.2 -0.1,0 -0.2,0 -0.3,0 -0.1,0 -0.2,0 -0.3,0.1 -0.7,0.1 -1.5,0.2 -2.2,0.2 0,0 0,0 -0.1,0 0,0 0,0 0,0 0,0 0,0 0,0 -0.1,0 -0.3,0 -0.4,0 -0.1,0 -0.2,0 -0.4,0 h -0.1 c -0.3,0 -0.5,0 -0.8,0 -0.6,0 -1.2,-0.1 -1.8,-0.2 0,0 0,0 0,0 -0.1,0 -0.3,0 -0.4,-0.1 0,0 0,0 -0.1,0 0,0 0,0 -0.1,0 -0.1,0 -0.2,0 -0.2,0 -0.1,0 -0.2,0 -0.3,-0.1 -0.2,0 -0.3,-0.1 -0.5,-0.1 v 0 c 0,0 0,0 0,0 -0.2,0 -0.3,-0.1 -0.5,-0.1 -0.1,0 -0.1,0 -0.2,-0.1 -0.1,0 -0.1,0 -0.2,-0.1 -0.3,-0.1 -0.6,-0.2 -0.9,-0.3 -0.1,0 -0.2,-0.1 -0.3,-0.1 -0.2,-0.1 -0.5,-0.2 -0.7,-0.3 -0.1,0 -0.1,0 -0.2,-0.1 -0.2,-0.1 -0.4,-0.2 -0.6,-0.3 -0.1,0 -0.2,-0.1 -0.3,-0.2 -0.1,0 -0.2,-0.1 -0.3,-0.2 -0.6,-0.3 -1.1,-0.7 -1.6,-1.2 -6.8,-5.5 -10.2,-17.2 -10.2,-35.1 v -6.8 c 0.3,-0.2 0.5,-0.4 0.8,-0.7 0.3,-0.2 0.5,-0.5 0.8,-0.7 0.3,-0.3 0.6,-0.5 1,-0.9 0.3,-0.3 0.7,-0.6 1,-1 0.4,-0.3 0.7,-0.7 1.1,-1 0.1,-0.1 0.2,-0.2 0.3,-0.3 0.2,-0.2 0.3,-0.3 0.5,-0.5 0.4,-0.4 0.7,-0.7 1,-1.1 0.3,-0.3 0.6,-0.7 1,-1 0.4,-0.4 0.7,-0.8 1.1,-1.2 0.1,-0.1 0.2,-0.2 0.3,-0.3 0,0 0.1,-0.1 0.1,-0.2 0.4,-0.5 0.8,-0.9 1.2,-1.4 0.4,-0.5 0.9,-1.1 1.3,-1.6 0.4,-0.5 0.8,-1.1 1.2,-1.6 0.2,-0.3 0.5,-0.6 0.7,-1 0.1,-0.1 0.1,-0.2 0.2,-0.3 0.2,-0.2 0.3,-0.4 0.4,-0.6 0.2,-0.3 0.4,-0.6 0.6,-0.9 0.2,-0.3 0.4,-0.6 0.6,-1 0,0 0.1,-0.1 0.1,-0.1 0.2,-0.3 0.3,-0.6 0.5,-0.9 0.2,-0.2 0.3,-0.5 0.4,-0.7 0.2,-0.3 0.4,-0.7 0.6,-1 0.2,-0.3 0.4,-0.7 0.5,-1 0.3,-0.5 0.6,-1.1 0.9,-1.6 0.1,-0.1 0.1,-0.3 0.2,-0.4 0.1,-0.1 0.1,-0.3 0.2,-0.4 0.2,-0.4 0.4,-0.9 0.7,-1.3 0.1,-0.2 0.2,-0.4 0.3,-0.6 0.1,-0.1 0.1,-0.2 0.2,-0.4 0.1,-0.1 0.2,-0.3 0.2,-0.5 0.3,-0.6 0.6,-1.3 0.9,-2 0,0 0,0 0,-0.1 0.1,-0.2 0.2,-0.4 0.2,-0.6 0.3,-0.6 0.5,-1.2 0.7,-1.8 0.1,-0.2 0.2,-0.5 0.3,-0.7 0,0 0,0 0,0 0.3,-0.7 0.6,-1.5 0.8,-2.2 0,0 0,-0.1 0,-0.1 0.2,-0.4 0.3,-0.9 0.4,-1.3 0.1,-0.3 0.2,-0.6 0.3,-1 0.1,-0.2 0.1,-0.4 0.2,-0.6 0.2,-0.6 0.4,-1.2 0.5,-1.8 0.1,-0.3 0.2,-0.6 0.3,-1 0.2,-0.8 0.5,-1.7 0.7,-2.6 0,-0.1 0,-0.1 0.1,-0.2 0.2,-0.8 0.4,-1.5 0.5,-2.3 0,-0.2 0.1,-0.3 0.1,-0.5 0.2,-0.8 0.3,-1.6 0.5,-2.4 0.1,-0.4 0.2,-0.8 0.2,-1.3 0.1,-0.4 0.2,-0.9 0.2,-1.3 0.1,-0.4 0.1,-0.7 0.2,-1.1 0.1,-0.8 0.2,-1.6 0.3,-2.5 0,-0.1 0,-0.2 0,-0.3 0.1,-1 0.2,-2.1 0.3,-3.1 0.1,-1 0.2,-2.1 0.3,-3.1 0,-0.1 0,-0.1 0,-0.2 0.1,-1 0.1,-2 0.2,-3 0,-0.1 0,-0.2 0,-0.3 0,-1 0.1,-2 0.1,-3 v 0.2 c 0,-1 0,-2.1 0,-3.1 v -0.5 l -0.3,-123.9 3.8,2.2 47.8,-27.9 z"
   id="path1075" />
</g><g
     id="g1081">
	<polygon
   class="st1"
   points="100.1,373 151.9,403.4 "
   id="polygon1079" />
</g><polygon
     class="st3"
     points="252,284.3 303.1,314.5 151.9,403.4 100.1,373 "
     id="polygon1083" /><g
     id="g1087">
	<path
   class="st2"
   d="m 485.9,272.3 c 0,14.8 -4.5,23.3 -13.4,25.3 -2.4,0.6 -5.1,0.7 -8.1,0.4 -0.3,0 -0.5,-0.1 -0.8,-0.1 -0.2,0 -0.5,-0.1 -0.8,-0.1 -0.6,-0.1 -1.2,-0.2 -1.8,-0.3 -0.3,-0.1 -0.6,-0.1 -0.9,-0.2 -0.5,-0.1 -1,-0.2 -1.5,-0.4 -0.3,-0.1 -0.6,-0.1 -0.8,-0.2 -3.3,-0.9 -6.9,-2.2 -10.8,-3.9 -0.4,-0.2 -0.8,-0.3 -1.2,-0.5 -0.4,-0.2 -0.8,-0.3 -1.2,-0.5 -0.9,-0.4 -1.8,-0.9 -2.8,-1.3 -0.4,-0.2 -0.8,-0.4 -1.2,-0.6 -1.4,-0.7 -2.8,-1.5 -4.3,-2.3 -0.3,-0.1 -0.5,-0.3 -0.8,-0.4 -0.8,-0.4 -1.5,-0.9 -2.3,-1.3 v 0 l -13.7,-8 -2.2,-1.3 -49.4,-28.9 0.2,-88.7 51.6,30.1 -0.1,28.1 v 0 l 63.7,37.2 v 0 0 c 0.3,1.2 0.6,2.4 0.8,3.6 0.1,0.5 0.2,1.1 0.3,1.6 0,0.2 0.1,0.5 0.1,0.8 0.1,0.3 0.1,0.6 0.1,0.9 0.1,0.4 0.1,0.9 0.2,1.3 0,0.3 0.1,0.6 0.1,0.9 0,0.4 0.1,0.7 0.1,1.1 0,0.4 0.1,0.8 0.1,1.2 0.1,0.6 0.1,1.2 0.1,1.8 0,0.5 0.1,1 0.1,1.4 0,0.3 0,0.7 0,1 0.6,0.7 0.6,1.5 0.6,2.3 z"
   id="path1085" />
</g><g
     id="g1091">
	<path
   class="st2"
   d="m 427,365.8 0.1,-25.7 -7.8,-4.5 -0.1,29.5 v 5.3 0 l 36.4,21.5 v 53.7 l -42,24.3 0.2,-54.6 -38.2,-22.2 V 310 l -7.5,-4.4 -0.3,91.8 38,22.2 -0.2,62.3 0.1,1.7 57.5,-33.3 v -63 z"
   id="path1089" />
</g><g
     id="g1095">
	<path
   class="st2"
   d="m 612.3,273.8 v -1.5 c 0,-0.9 0,-1.8 0,-2.6 v -0.1 c 0,-0.3 0,-0.6 0,-0.9 0,-0.2 0,-0.4 0,-0.7 v -0.2 c 0,-0.2 0,-0.4 0,-0.6 0,-0.6 0,-1.1 -0.1,-1.6 0,-0.3 0,-0.7 -0.1,-1.1 0,-0.5 -0.1,-1.1 -0.1,-1.7 0,-0.2 0,-0.3 0,-0.5 0,-0.5 0,-0.9 -0.1,-1.3 -0.1,-1.2 -0.2,-2.5 -0.3,-3.8 V 257 c -0.1,-1 -0.2,-2 -0.3,-3 -0.1,-0.5 -0.1,-1.1 -0.2,-1.6 0,-0.4 -0.1,-0.8 -0.1,-1.2 -0.1,-0.9 -0.3,-1.9 -0.4,-2.8 0,-0.2 -0.1,-0.5 -0.1,-0.8 -0.1,-0.8 -0.2,-1.6 -0.4,-2.3 -0.1,-0.4 -0.1,-0.8 -0.2,-1.1 -0.1,-0.4 -0.1,-0.8 -0.2,-1.2 0,-0.3 -0.1,-0.6 -0.2,-0.8 -0.2,-1 -0.4,-2 -0.6,-3 -0.1,-0.3 -0.1,-0.5 -0.2,-0.8 -0.2,-0.7 -0.3,-1.4 -0.5,-2.2 -0.2,-0.7 -0.3,-1.5 -0.5,-2.2 l -0.2,-0.7 c -0.1,-0.4 -0.5,-2.2 -0.5,-2.2 v 0 c -0.1,-0.3 -0.2,-0.6 -0.2,-0.9 -0.1,-0.2 -1,-3.5 -1.1,-3.8 l -0.1,-0.3 -0.2,-0.6 c 0,-0.2 -0.3,-1 -0.3,-1.2 -0.3,-1 -0.6,-1.9 -0.9,-2.8 l -0.1,-0.3 -0.1,-0.1 c -0.3,-0.8 -0.5,-1.6 -0.8,-2.3 -0.1,-0.2 -0.2,-0.5 -0.2,-0.7 l -1.1,-3.1 h -0.1 c -0.1,-0.4 -0.3,-0.8 -0.4,-1.1 l -0.7,-1.8 c -0.2,-0.6 -0.5,-1.2 -0.7,-1.8 -0.5,-1.2 -1,-2.4 -1.5,-3.5 -0.4,-0.9 -0.8,-1.9 -1.3,-2.8 -0.1,-0.3 -0.2,-0.6 -0.4,-0.8 v -0.1 c -0.1,-0.2 -0.2,-0.5 -0.3,-0.6 -0.2,-0.3 -0.3,-0.7 -0.5,-0.9 -0.3,-0.8 -0.7,-1.5 -1.1,-2.3 -0.1,-0.1 -0.1,-0.2 -0.1,-0.2 -0.3,-0.6 -0.6,-1.2 -0.9,-1.8 -0.4,-0.8 -0.8,-1.6 -1.2,-2.4 -0.1,-0.2 -0.2,-0.4 -0.4,-0.7 -0.4,-0.7 -0.8,-1.5 -1.2,-2.2 -0.2,-0.4 -0.4,-0.8 -0.6,-1.1 -0.4,-0.7 -0.8,-1.4 -1.2,-2.1 l -0.3,-0.5 c -0.1,-0.2 -0.2,-0.4 -0.3,-0.5 -0.3,-0.5 -0.5,-0.9 -0.8,-1.4 l -1,-1.6 c -0.7,-1.1 -1.4,-2.3 -2.1,-3.4 l -0.1,-0.1 c -0.6,-0.9 -1.1,-1.8 -1.7,-2.7 -1.4,-2.1 -2.7,-4 -4,-5.9 -0.6,-0.8 -1.1,-1.6 -1.7,-2.4 -1.9,-2.5 -3.8,-5 -5.7,-7.4 -0.4,-0.5 -0.9,-1.1 -1.3,-1.6 -1.8,-2.2 -3.8,-4.5 -5.7,-6.6 -0.6,-0.7 -1.2,-1.4 -1.9,-2.1 -0.6,-0.6 -1.2,-1.3 -1.8,-1.9 -0.7,-0.7 -1.3,-1.4 -2,-2.1 -0.6,-0.7 -1.2,-1.3 -1.9,-1.9 -0.1,-0.1 -0.2,-0.2 -0.4,-0.4 -0.6,-0.6 -1.1,-1.1 -1.7,-1.7 l -1.3,-1.3 c -0.3,-0.3 -0.5,-0.5 -0.8,-0.7 -0.6,-0.6 -1.2,-1.2 -1.9,-1.8 -0.5,-0.5 -1,-0.9 -1.4,-1.3 -0.3,-0.3 -0.7,-0.6 -0.9,-0.9 -0.8,-0.7 -1.5,-1.4 -2.3,-2.1 l -0.2,-0.2 c -0.9,-0.8 -1.7,-1.5 -2.6,-2.3 -0.9,-0.8 -1.9,-1.6 -2.8,-2.4 -0.9,-0.8 -1.8,-1.5 -2.8,-2.3 h -0.1 c 0,0 0,0 0,0 l -0.1,-0.1 c -0.9,-0.8 -1.9,-1.6 -2.9,-2.3 -1,-0.8 -2,-1.6 -3,-2.4 -0.8,-0.6 -1.6,-1.2 -2.4,-1.8 -7.3,-5.6 -15.3,-11.1 -23.7,-16.4 -1.1,-0.7 -2.3,-1.4 -3.4,-2.1 l -0.5,-0.3 c -1.1,-0.7 -2.3,-1.4 -3.4,-2.1 -1.1,-0.7 -2.2,-1.3 -3.4,-2 L 324.4,0 l -58.7,34.5 0.3,0.2 107,62.5 56.9,32 c 39,22.8 73.8,48.4 93.2,78 11.2,17.1 19.5,35.5 24.4,54.4 0.2,0.5 0.3,1 0.4,1.5 2.9,11.2 4.5,22.6 5,33.8 0,0.7 0.1,1.5 0.1,2.2 0,0.2 0,0.3 0,0.4 0,0.2 0,0.3 0,0.5 0,0.6 0,1.2 0,1.8 0,0.5 0,1.1 0,1.6 0,0.5 0,1 0,1.5 0,0.3 0,0.5 0,0.8 0,0.4 0,0.7 0,1.1 0,0.4 0,0.7 0,1.1 0,0.3 0,0.7 0,1 0,0.4 0,0.7 -0.1,1.1 -0.6,11.5 -2.7,23.3 -6,32 -0.5,1.2 -1,2.5 -1.6,3.6 -2.9,6.1 -6.9,11.2 -11.9,15.1 -0.7,0.5 -1.4,1.1 -2.2,1.6 -0.1,0.1 -0.2,0.1 -0.3,0.2 l 54.4,-32 c 6.3,-3.7 12.5,-8.8 16.4,-15 0.4,-0.6 0.8,-1.3 1.1,-1.9 0.2,-0.4 0.4,-0.7 0.6,-1.1 0.1,-0.2 0.2,-0.4 0.3,-0.6 0.2,-0.3 0.4,-0.7 0.5,-1 l 0.2,-0.3 c 0,-0.1 0.1,-0.2 0.2,-0.3 v -0.1 c 0.6,-1.2 1.1,-2.4 1.5,-3.6 0.2,-0.4 0.3,-0.9 0.5,-1.3 0,-0.1 0.1,-0.2 0.1,-0.4 0.3,-0.8 0.6,-1.6 0.8,-2.4 l 0.1,-0.3 c 0.2,-0.8 0.5,-1.5 0.7,-2.3 0,-0.1 0.1,-0.2 0.1,-0.3 0.1,-0.2 0.1,-0.4 0.2,-0.6 0.1,-0.5 0.3,-1 0.4,-1.6 0.1,-0.2 0.1,-0.4 0.2,-0.6 v -0.1 c 0.1,-0.5 0.3,-1.1 0.4,-1.6 0.1,-0.2 0.1,-0.5 0.2,-0.7 0.1,-0.2 0.1,-0.4 0.1,-0.6 0.1,-0.4 0.2,-0.8 0.2,-1.2 l 0.7,-3.5 c 0.2,-1.1 0.3,-2.2 0.5,-3.4 0.1,-0.4 0.1,-0.8 0.1,-1.1 0.2,-1.7 0.4,-3.2 0.5,-4.7 0.1,-1.4 0.2,-3 0.3,-4.8 0.1,-0.9 0.1,0 0.1,-1.3 z m -8.1,1.5 c -0.1,1.7 -0.2,3.2 -0.3,4.5 -0.1,1.4 -0.2,2.9 -0.5,4.5 0,0.3 -0.1,0.6 -0.1,0.8 0,0 -0.1,0.3 -0.1,0.4 l -0.5,3.3 c 0,0.3 -0.1,0.5 -0.2,0.9 -0.2,1 -0.4,2 -0.6,3.1 0,0.1 -0.1,0.2 -0.1,0.4 0,0 -0.4,1.6 -0.5,2.1 l -0.8,3.1 c -0.2,0.7 -0.4,1.4 -0.6,2.1 l -0.1,0.3 c -0.2,0.7 -0.5,1.5 -0.8,2.2 l -0.1,0.3 c -0.1,0.4 -0.3,0.8 -0.4,1.2 -0.4,1 -0.8,2 -1.3,3.1 -0.1,0.2 -0.2,0.3 -0.2,0.5 V 308 c -0.1,0.3 -0.2,0.5 -0.4,0.8 l -0.3,0.6 c -0.1,0.3 -0.3,0.6 -0.5,0.9 -0.3,0.5 -0.6,1 -0.9,1.5 -2.1,3.4 -4.2,5.8 -7.2,8.3 -0.1,0.1 -0.3,0.2 -0.4,0.3 l -32,18.6 0.1,-0.3 c 0.1,-0.2 0.1,-0.2 0.2,-0.6 l 0.1,-0.3 c 0.1,-0.2 0.1,-0.3 0.2,-0.5 l 0.7,-2 1.3,-4.5 c 0.1,-0.2 0.1,-0.4 0.2,-0.6 0,-0.1 0.1,-0.2 0.1,-0.3 0.2,-0.8 0.4,-1.6 0.6,-2.5 0.2,-0.7 0.3,-1.4 0.5,-2.2 0,-0.1 0.1,-0.2 0.1,-0.4 0.2,-0.8 0.3,-1.6 0.4,-2.3 0.1,-0.8 0.3,-1.6 0.4,-2.4 0.1,-0.7 0.2,-1.5 0.3,-2.2 v -0.2 c 0.2,-1.4 0.3,-3 0.5,-4.7 v -0.2 c 0.1,-1.7 0.2,-3.2 0.3,-4.6 0,-0.8 0.1,-1.6 0.1,-2.3 0,-0.6 0,-1.1 0,-1.7 0,-0.2 0,-0.5 0,-0.8 v -0.3 c 0,-1 0,-1.9 0,-2.9 v -0.5 c 0,-0.3 0,-0.7 0,-1 0,-0.3 0,-0.7 0,-1 v -0.2 c 0,-0.1 0,-0.2 0,-0.3 0,-0.7 -0.1,-1.5 -0.1,-2.1 0,-0.9 -0.1,-1.8 -0.1,-2.7 0,-0.7 -0.1,-1.4 -0.1,-2.1 0,-0.7 -0.1,-1.4 -0.2,-2 0,-0.3 -0.1,-0.7 -0.1,-1 -0.1,-0.8 -0.2,-1.6 -0.2,-2.4 v -0.1 c -0.1,-0.6 -0.1,-1.1 -0.2,-1.6 l -0.2,-1.5 c 0,-0.3 -0.1,-0.5 -0.1,-0.8 -0.1,-0.9 -0.2,-1.7 -0.4,-2.6 l -0.1,-0.6 c -0.1,-0.7 -0.2,-1.4 -0.3,-2 v -0.2 c -0.1,-0.8 -0.3,-1.6 -0.4,-2.4 -0.1,-0.5 -0.2,-1 -0.3,-1.4 -0.1,-0.6 -0.2,-1.3 -0.4,-1.9 -0.1,-0.4 -0.2,-0.9 -0.2,-1.2 -0.3,-1.4 -0.6,-2.8 -0.9,-4 l -0.4,-1.5 c -0.1,-0.3 -0.2,-0.7 -0.3,-1 -0.1,-0.6 -0.3,-1.2 -0.5,-1.8 l -0.1,-0.4 c -0.2,-0.7 -0.4,-1.4 -0.6,-2.1 -0.2,-0.7 -0.4,-1.4 -0.6,-2.1 -0.2,-0.7 -0.4,-1.3 -0.6,-2 -0.2,-0.7 -0.4,-1.4 -0.7,-2.1 -0.4,-1.3 -0.9,-2.6 -1.3,-3.8 -0.2,-0.7 -0.5,-1.4 -0.7,-2 l -0.7,-1.8 c -0.1,-0.2 -0.1,-0.3 -0.2,-0.5 -0.4,-1 -0.8,-2 -1.2,-3 -0.4,-0.9 -0.7,-1.8 -1.1,-2.6 l -0.2,-0.4 c -0.1,-0.1 -0.1,-0.3 -0.2,-0.4 V 237 c -0.5,-1.2 -1.1,-2.4 -1.6,-3.6 -0.6,-1.3 -1.2,-2.5 -1.8,-3.8 -0.1,-0.1 -0.1,-0.2 -0.2,-0.4 -0.2,-0.5 -0.5,-1 -0.8,-1.5 -0.4,-0.7 -0.7,-1.4 -1.1,-2.1 l -0.3,-0.5 c -0.1,-0.2 -0.2,-0.5 -0.4,-0.7 -0.5,-0.9 -0.9,-1.8 -1.4,-2.6 -0.4,-0.8 -0.9,-1.6 -1.4,-2.4 l -0.8,-1.3 c -0.3,-0.5 -0.6,-1 -0.9,-1.5 -0.1,-0.2 -0.3,-0.5 -0.4,-0.7 v -0.1 c -0.4,-0.7 -0.8,-1.4 -1.3,-2.1 -0.9,-1.5 -1.9,-3 -3.1,-4.9 l -0.5,-0.7 c -0.2,-0.2 -0.3,-0.5 -0.5,-0.7 -0.2,-0.3 -0.4,-0.7 -0.6,-0.9 -0.8,-1.2 -1.6,-2.3 -2.4,-3.5 -0.6,-0.8 -1.1,-1.6 -1.7,-2.4 -2.1,-2.9 -4.3,-5.8 -6.6,-8.5 -0.1,-0.1 -0.2,-0.2 -0.2,-0.3 l -0.5,-0.6 c -0.3,-0.3 -0.5,-0.6 -0.8,-0.9 -2.2,-2.6 -4.5,-5.2 -6.9,-7.8 -0.4,-0.5 -0.9,-1 -1.3,-1.4 -0.7,-0.8 -1.5,-1.5 -2.2,-2.3 l -0.7,-0.7 c -0.2,-0.2 -0.4,-0.4 -0.6,-0.6 -0.4,-0.5 -0.9,-0.9 -1.3,-1.4 -0.7,-0.7 -1.5,-1.4 -2.1,-2.1 -0.2,-0.3 -0.5,-0.5 -0.8,-0.8 l -0.2,-0.2 c -0.1,-0.1 -0.3,-0.3 -0.4,-0.4 -0.7,-0.7 -1.4,-1.4 -2.1,-2 -0.8,-0.8 -1.7,-1.6 -2.5,-2.4 -4.2,-3.9 -8.7,-7.6 -13.1,-11.2 -0.4,-0.3 -0.7,-0.6 -1.2,-1 l -1.2,-0.9 c -3.2,-2.5 -6.6,-5 -10.1,-7.5 -1,-0.7 -2,-1.4 -3,-2.1 -1.8,-1.2 -3.6,-2.5 -6.1,-4.1 -0.7,-0.5 -1.4,-0.9 -2.1,-1.4 -3.5,-2.3 -7.1,-4.6 -10.7,-6.8 -0.9,-0.6 -1.8,-1.1 -2.7,-1.7 -0.9,-0.5 -1.8,-1.1 -2.7,-1.6 L 281.2,34.7 324.9,9.2 491,106.1 c 1.1,0.6 2.2,1.3 3.3,2 1.1,0.7 2.2,1.3 3.4,2 l 0.5,0.3 c 1.1,0.7 2.2,1.4 3.3,2.1 8.2,5.2 15.9,10.5 23.1,16 0.8,0.6 1.5,1.2 2.3,1.8 1,0.8 1.9,1.5 2.9,2.3 1,0.8 1.9,1.5 2.8,2.3 l 0.3,0.2 c 0.9,0.7 1.7,1.4 2.6,2.2 0.9,0.8 1.8,1.6 2.7,2.3 0.8,0.7 1.6,1.4 2.4,2.2 0.1,0.1 0.1,0.1 0.2,0.1 l 0.1,0.1 c 0.8,0.7 1.5,1.3 2.3,2.1 0.3,0.3 0.6,0.5 0.9,0.8 0.4,0.4 0.9,0.8 1.4,1.3 0.6,0.6 1.2,1.1 1.8,1.8 0.2,0.2 0.5,0.5 0.7,0.7 l 1.3,1.3 c 0.6,0.6 1.1,1.1 1.7,1.7 l 0.2,0.2 c 0.6,0.6 1.2,1.2 1.9,1.9 0.7,0.7 1.3,1.3 2,2.1 0.6,0.6 1.1,1.2 1.7,1.8 l 0.1,0.1 c 0.6,0.7 1.2,1.3 1.8,2 1.8,2.1 3.7,4.2 5.5,6.4 0.4,0.5 0.8,1 1.3,1.6 1.9,2.3 3.7,4.7 5.5,7.1 0.6,0.8 1.1,1.5 1.6,2.3 1.3,1.8 2.5,3.6 3.9,5.6 0.6,0.9 1.1,1.7 1.7,2.6 l 0.1,0.1 c 0.7,1.1 1.4,2.2 2,3.3 l 1,1.6 c 0.3,0.4 0.5,0.9 0.8,1.4 0.1,0.1 0.1,0.2 0.2,0.4 l 0.3,0.5 c 0.4,0.7 0.8,1.3 1.2,2 0.2,0.3 0.3,0.6 0.5,0.9 l 0.1,0.1 c 0.4,0.7 0.8,1.4 1.1,2.1 l 0.1,0.1 c 0.1,0.2 0.2,0.3 0.3,0.5 0.4,0.7 0.8,1.4 1.2,2.3 0.3,0.6 3.2,6.5 3.2,6.5 0.4,0.9 0.8,1.8 1.2,2.7 0.5,1.1 1,2.3 1.4,3.4 0.2,0.6 1.9,4.8 2.2,5.6 0.1,0.2 1.7,4.7 1.8,5.1 l 0.1,0.3 c 0,0 0.6,1.7 0.8,2.6 0.1,0.2 0.2,0.6 0.2,0.6 0,0.1 0.1,0.2 0.1,0.3 0,0 0.2,0.6 0.2,0.7 0,0 0.3,0.9 0.3,1.2 0.2,0.8 0.4,1.5 0.6,2.3 v 0.1 c 0,0.1 0.1,0.2 0.1,0.3 0.3,1.1 1.7,6.6 1.7,6.6 0.1,0.4 0.2,0.9 0.3,1.3 v 0.1 c 0,0.2 0.1,0.4 0.1,0.6 0.2,0.9 0.6,3.3 0.7,3.5 v 0.2 c 0.1,0.4 0.1,0.7 0.2,1.1 0.1,0.3 0.1,0.6 0.2,1 0.1,0.7 0.2,1.5 0.4,2.3 0,0.2 0.1,0.4 0.1,0.6 v 0.2 c 0.1,0.9 0.3,1.8 0.4,2.7 0,0.3 0.1,0.7 0.1,1.1 0.1,0.5 0.1,1 0.2,1.5 0.1,1 0.2,1.9 0.3,2.9 v 0.2 c 0.1,1.2 0.2,2.4 0.3,3.6 0,0.4 0.1,0.8 0.1,1.2 v 0.2 c 0,0.1 0,0.2 0,0.3 0,0.5 0,1 0.1,1.5 v 0.1 c 0,0.3 0,0.6 0.1,1 0,0.5 0,1 0.1,1.5 v 0.1 c 0,0.1 0,0.2 0,0.4 v 0.4 c 0,0.1 0,0.3 0,0.4 v 0.1 c 0,0.2 0,0.5 0,0.7 v 0.2 c 0,0.8 0,1.7 0,2.6 -0.5,-0.3 -0.4,1.3 -0.5,2.7 z"
   id="path1093" />
</g><path
     class="st4"
     d="M 309.1,318"
     id="path1097" /><path
     class="st4"
     d="M 251.8,284.2"
     id="path1099" /><path
     class="st3"
     d="m 55.2,706.4 c 0,-0.6 0,-1.2 0,-1.9 l -0.1,-23.7 64.9,-37.4 -6.2,-3.6 -41.3,-24.2 h -0.1 l -7.2,-4.2 -0.6,-0.4 -57,33.2 -7.6,4.2 v 0 c 0,0 0,0 0,0.1 0,1.9 0.1,9.1 0,13.8 v 0 c 0,1.4 0,2.6 0,3.4 0,3 0,5.9 0,8.6 v 0.1 c 0,56.4 18.2,71.7 24.6,76.5 l 7.4,4.7 47.4,27.8 1.6,1 c 0,0 0,0 0,0 v 0 0 c 0.4,0.2 4,2 4.3,2.1 C 69,774 55.8,745.7 55.2,706.4 Z M 31.6,745.9 C 29.4,744.6 27.4,743 25.8,741.1 16.8,730.8 7.9,707.5 9.3,667.4 V 652.8 L 65,620.5 v 0 0 l 38.7,22.8 v 0 L 79,657.5 69.8,662.6 45.7,677 46,710.3 c 1.5,40.9 10.3,50.1 10.4,50.2 z"
     id="path1101" /><path
     class="st1"
     d="m 501.8,263.6 z m -15.9,6.4 c 0,-0.3 0,-0.7 0,-1 0,-0.5 0,-1 -0.1,-1.4 0,-0.6 -0.1,-1.2 -0.1,-1.8 0,-0.4 -0.1,-0.8 -0.1,-1.2 0,-0.4 -0.1,-0.7 -0.1,-1.1 0,-0.3 -0.1,-0.6 -0.1,-0.9 -0.1,-0.5 -0.1,-0.9 -0.2,-1.3 0,-0.3 -0.1,-0.6 -0.1,-0.9 0,-0.3 -0.1,-0.5 -0.1,-0.8 -0.1,-0.5 -0.2,-1.1 -0.3,-1.6 -0.2,-1.2 -0.5,-2.4 -0.8,-3.6 v 0 c -0.1,-0.5 -0.3,-1.1 -0.4,-1.6 0.2,0.5 0.3,1.1 0.4,1.6 l -63.7,-37.2 v 0 l 0.1,-28.1 -51.7,-30.1 -0.2,88.7 49.4,28.9 2.2,1.3 13.7,8 v 0 c 0.8,0.5 1.5,0.9 2.3,1.3 0.2,0.1 0.5,0.3 0.8,0.4 1.5,0.8 2.9,1.6 4.3,2.3 0.4,0.2 0.8,0.4 1.2,0.6 0.9,0.5 1.8,0.9 2.8,1.3 0.4,0.2 0.8,0.4 1.2,0.5 0.4,0.2 0.8,0.4 1.2,0.5 3.9,1.7 7.5,3 10.8,3.9 0.3,0.1 0.5,0.1 0.8,0.2 0.5,0.1 1,0.2 1.5,0.4 0.3,0.1 0.6,0.1 0.9,0.2 0.6,0.1 1.2,0.2 1.8,0.3 0.3,0 0.5,0.1 0.8,0.1 0.3,0 0.5,0.1 0.8,0.1 3,0.3 5.7,0.2 8.1,-0.4 8.9,-2.1 13.4,-10.5 13.4,-25.3 -0.5,-0.8 -0.5,-1.6 -0.5,-2.3 z"
     id="path1103" /><path
     class="st1"
     d="m 553.1,301.8 c 0,-0.6 0,-1.2 0,-1.8 0,-0.2 0,-0.3 0,-0.5 0,-0.1 0,-0.3 0,-0.4 0,-0.7 -0.1,-1.4 -0.1,-2.2 -0.5,-11.3 -2.1,-22.6 -5,-33.8 -0.1,-0.5 -0.2,-1 -0.4,-1.5 -5,-18.8 -13.2,-37.3 -24.4,-54.4 -19.4,-29.6 -54.3,-55.3 -93.2,-78 L 373.1,97.2 266,34.7 l -0.3,-0.2 -0.3,64.3 38.3,22.3 -0.5,193.4 -146.9,86.3 -4.3,2.5 -51.9,-30.3 v 64.2 l 1.2,0.7 46.1,27.1 4.7,2.8 4.7,-2.7 43.2,-25.2 0.5,180 v 0.7 c 0,0.9 0,1.7 0,2.5 0,0.3 0,0.6 0,0.9 0,1 -0.1,2 -0.1,3 0,1 -0.1,2.1 -0.2,3.1 -0.1,1.8 -0.3,3.6 -0.5,5.4 0,0.5 -0.1,1 -0.2,1.4 -0.1,1.2 -0.3,2.3 -0.5,3.5 -0.1,0.5 -0.2,1 -0.3,1.5 -0.6,3.4 -1.3,6.7 -2.2,9.9 -0.2,0.6 -0.3,1.2 -0.5,1.8 0,0.1 -0.1,0.2 -0.1,0.3 0,0.2 -0.1,0.4 -0.2,0.6 0,0 0,0 0,0.1 -0.1,0.2 -0.1,0.4 -0.2,0.6 0,0.1 -0.1,0.2 -0.1,0.4 0,0.1 -0.1,0.2 -0.1,0.3 -0.1,0.2 -0.1,0.3 -0.2,0.5 0,0 0,0 0,0 -0.1,0.3 -0.2,0.6 -0.3,0.8 -0.1,0.2 -0.1,0.4 -0.2,0.7 -0.2,0.4 -0.3,0.9 -0.5,1.3 -0.1,0.1 -0.1,0.2 -0.2,0.4 -0.3,0.7 -0.5,1.4 -0.8,2.1 -0.1,0.3 -0.2,0.6 -0.3,0.8 -0.2,0.5 -0.5,1.1 -0.7,1.6 0,0 0,0.1 0,0.1 -0.2,0.4 -0.3,0.8 -0.5,1.1 -0.3,0.6 -0.6,1.3 -0.9,1.9 -0.1,0.3 -0.3,0.5 -0.4,0.8 0,0.1 -0.1,0.2 -0.1,0.2 -0.1,0.2 -0.2,0.4 -0.3,0.6 0,0 0,0.1 0,0.1 -0.2,0.4 -0.4,0.8 -0.7,1.2 0,0 0,0 0,0 0,0 0,0 0,0 0,0.1 -0.1,0.2 -0.2,0.3 0,0.1 -0.1,0.1 -0.1,0.2 -0.1,0.2 -0.2,0.4 -0.4,0.6 -0.2,0.3 -0.4,0.6 -0.6,1 -0.1,0.2 -0.2,0.4 -0.3,0.5 -0.1,0.2 -0.2,0.3 -0.3,0.5 -0.1,0.2 -0.2,0.3 -0.3,0.5 l -0.4,0.6 c -0.2,0.3 -0.4,0.7 -0.7,1 -0.1,0.2 -0.2,0.4 -0.4,0.6 -0.1,0.1 -0.1,0.2 -0.2,0.2 0,0 0,0 -0.1,0.1 -0.1,0.1 -0.1,0.1 -0.2,0.2 0,0 0,0.1 -0.1,0.1 0,0 0,0 0,0.1 -0.5,0.7 -1,1.4 -1.5,2.1 0,0 0,0 -0.1,0.1 -0.4,0.6 -0.9,1.2 -1.4,1.7 -0.2,0.3 -0.5,0.6 -0.7,0.9 -0.1,0.1 -0.2,0.2 -0.3,0.4 0,0 -0.1,0.1 -0.1,0.1 -0.3,0.4 -0.6,0.7 -0.9,1.1 -0.6,0.6 -1.1,1.2 -1.7,1.8 -0.2,0.2 -0.4,0.5 -0.7,0.7 -0.2,0.2 -0.4,0.4 -0.5,0.5 -0.1,0.1 -0.1,0.1 -0.2,0.2 -0.1,0.1 -0.3,0.3 -0.4,0.4 -0.2,0.2 -0.3,0.3 -0.5,0.5 -0.5,0.5 -1.1,1 -1.6,1.5 -0.1,0.1 -0.2,0.2 -0.4,0.3 -0.5,0.5 -1.1,1 -1.6,1.4 -0.2,0.2 -0.5,0.4 -0.7,0.6 -0.5,0.4 -0.9,0.8 -1.4,1.1 -0.1,0.1 -0.2,0.2 -0.4,0.3 -0.4,0.3 -0.9,0.7 -1.3,1 -0.4,0.3 -0.9,0.7 -1.3,1 -0.6,0.4 -1.2,0.9 -1.8,1.3 -0.5,0.3 -1,0.7 -1.6,1 -0.1,0 -0.1,0.1 -0.2,0.1 -0.3,0.2 -0.5,0.3 -0.8,0.5 -0.1,0 -0.2,0.1 -0.2,0.1 -0.7,0.4 -1.4,0.8 -2.1,1.3 -0.4,0.2 -0.9,0.5 -1.3,0.7 -0.4,0.2 -0.7,0.4 -1.1,0.6 -0.2,0.1 -0.4,0.2 -0.6,0.3 -0.4,0.2 -0.7,0.4 -1.1,0.6 -0.6,0.3 -1.3,0.6 -1.9,0.9 -0.6,0.3 -1.3,0.6 -1.9,0.8 -0.4,0.2 -0.9,0.4 -1.3,0.5 -0.3,0.1 -0.6,0.2 -0.9,0.3 -0.2,0.1 -0.5,0.2 -0.7,0.2 -0.2,0.1 -0.4,0.1 -0.6,0.2 -0.5,0.2 -1.1,0.3 -1.6,0.5 -0.1,0 -0.1,0 -0.2,0 -0.3,0.1 -0.6,0.2 -1,0.2 -0.3,0.1 -0.5,0.1 -0.8,0.2 -0.4,0.1 -0.7,0.2 -1.1,0.2 -0.1,0 -0.2,0 -0.3,0.1 -0.1,0 -0.2,0 -0.3,0 -0.7,0.1 -1.5,0.2 -2.2,0.2 0,0 0,0 -0.1,0 0,0 0,0 0,0 v 0 c -0.2,0 -0.3,0 -0.5,0 -0.1,0 -0.2,0 -0.4,0 h -0.1 c -0.3,0 -0.5,0 -0.8,0 -0.6,0 -1.2,-0.1 -1.8,-0.2 0,0 0,0 0,0 -0.1,0 -0.2,0 -0.4,-0.1 -0.1,0 -0.1,0 -0.2,0 -0.1,0 -0.2,0 -0.2,0 -0.1,0 -0.2,0 -0.3,-0.1 -0.2,0 -0.3,-0.1 -0.5,-0.1 -0.1,0 -0.3,-0.1 -0.4,-0.1 0,0 -0.1,0 -0.1,0 -0.1,0 -0.2,-0.1 -0.3,-0.1 -0.1,0 -0.1,0 -0.2,-0.1 -0.3,-0.1 -0.6,-0.2 -0.9,-0.3 -0.3,-0.1 -0.6,-0.3 -1,-0.4 -0.1,0 -0.1,0 -0.2,-0.1 -0.2,-0.1 -0.4,-0.2 -0.6,-0.3 0,0 -0.1,0 -0.1,0 -0.1,0 -0.1,-0.1 -0.2,-0.1 -0.1,0 -0.2,-0.1 -0.3,-0.2 -0.6,-0.3 -1.1,-0.7 -1.6,-1.2 -6.8,-5.5 -10.2,-17.2 -10.2,-35.1 v -6.8 -16.4 -0.1 0 l -64.9,37.4 0.1,23.7 c 0,0.6 0,1.3 0,1.9 0.5,39.3 9.2,65.4 25.6,77.9 0.4,0.2 4.9,3.4 11.2,5.2 0.4,0.1 0.9,0.2 1.3,0.3 0.6,0.1 1.2,0.3 1.8,0.4 0.4,0.1 0.9,0.1 1.3,0.2 0.5,0.1 1,0.1 1.5,0.2 0.5,0 1,0.1 1.5,0.1 0.1,0 0.2,0 0.3,0 0.5,0 1,0.1 1.5,0.1 0.5,0 1.1,0 1.7,0 15.2,0 34.5,-6.8 57.9,-20.5 24.2,-14.2 44.1,-30.9 59.4,-50.3 15.3,-19.4 26.8,-40.8 34.2,-64.1 7.4,-23.4 11.1,-48 11,-73.8 l -0.6,-180.2 0.2,-0.1 140.6,82.1 V 482 l 0.2,-62.3 -38,-22.2 0.3,-91.8 9.3,5.4 41.8,24.4 7.8,4.5 6.2,3.6 c 22.6,13.3 41.6,21.4 57,24.4 15.3,2.9 27.6,1.9 36.8,-3 1.4,-0.8 2.8,-1.6 4.1,-2.5 0.7,-0.5 1.5,-1 2.2,-1.6 5,-4 9,-9 11.9,-15.1 0.6,-1.2 1.1,-2.4 1.6,-3.6 3.3,-8.6 5.4,-20.5 6,-32 0,-0.4 0,-0.7 0.1,-1.1 0,-0.4 0,-0.7 0,-1 0,-0.4 0,-0.8 0,-1.1 0,-0.4 0,-0.8 0,-1.1 0,-0.3 0,-0.6 0,-0.8 0,-0.5 0,-1 0,-1.5 0,-0.7 0,-1.2 0,-1.8 z m -80.6,-4.2 c -2.4,0.6 -5.1,0.7 -8.1,0.4 -0.3,0 -0.5,-0.1 -0.8,-0.1 -0.2,0 -0.5,-0.1 -0.8,-0.1 -0.6,-0.1 -1.2,-0.2 -1.8,-0.3 -0.3,-0.1 -0.6,-0.1 -0.9,-0.2 -0.5,-0.1 -1,-0.2 -1.5,-0.4 -0.3,-0.1 -0.6,-0.1 -0.8,-0.2 -3.3,-0.9 -6.9,-2.2 -10.8,-3.9 -0.4,-0.2 -0.8,-0.3 -1.2,-0.5 -0.4,-0.2 -0.8,-0.3 -1.2,-0.5 -0.9,-0.4 -1.8,-0.9 -2.8,-1.3 -0.4,-0.2 -0.8,-0.4 -1.2,-0.6 -1.4,-0.7 -2.8,-1.5 -4.3,-2.3 -0.3,-0.1 -0.5,-0.3 -0.8,-0.4 -0.8,-0.4 -1.5,-0.9 -2.3,-1.3 v 0 l -13.7,-8 -2.2,-1.3 -49.4,-28.9 0.2,-88.7 51.6,30.1 13.3,7.8 c 15.8,9.2 28.5,20.2 38.1,32.8 5.5,7.2 9.4,14.9 11.7,23.2 0.2,0.5 0.3,1.1 0.4,1.6 v 0 c 0.3,1.2 0.6,2.4 0.8,3.6 0.1,0.5 0.2,1.1 0.3,1.6 0,0.2 0.1,0.5 0.1,0.8 0.1,0.3 0.1,0.6 0.1,0.9 0.1,0.4 0.1,0.9 0.2,1.3 0,0.3 0.1,0.6 0.1,0.9 0,0.4 0.1,0.7 0.1,1.1 0,0.4 0.1,0.8 0.1,1.2 0.1,0.6 0.1,1.2 0.1,1.8 0,0.5 0.1,1 0.1,1.4 0,0.3 0,0.7 0,1 0,0.8 0,1.5 0,2.3 0.7,14.7 -3.8,23.2 -12.7,25.2 z m 29.3,-34 z"
     id="path1105" /><path
     class="st6"
     d="m 485.9,272.3 c 0,14.8 -4.5,23.3 -13.4,25.3 -2.4,0.6 -5.1,0.7 -8.1,0.4 -0.3,0 -0.5,-0.1 -0.8,-0.1 -0.2,0 -0.5,-0.1 -0.8,-0.1 -0.6,-0.1 -1.2,-0.2 -1.8,-0.3 -0.3,-0.1 -0.6,-0.1 -0.9,-0.2 -0.5,-0.1 -1,-0.2 -1.5,-0.4 -0.3,-0.1 -0.6,-0.1 -0.8,-0.2 -3.3,-0.9 -6.9,-2.2 -10.8,-3.9 -0.4,-0.2 -0.8,-0.3 -1.2,-0.5 -0.4,-0.2 -0.8,-0.3 -1.2,-0.5 -0.9,-0.4 -1.8,-0.9 -2.8,-1.3 -0.4,-0.2 -0.8,-0.4 -1.2,-0.6 -1.4,-0.7 -2.8,-1.5 -4.3,-2.3 -0.3,-0.1 -0.5,-0.3 -0.8,-0.4 -0.8,-0.4 -1.5,-0.9 -2.3,-1.3 v 0 l -13.7,-8 -2.2,-1.3 -49.4,-28.9 0.2,-88.7 51.6,30.1 -0.1,28.1 63.7,37.2 v 0 0 c 0.3,1.2 0.6,2.4 0.8,3.6 0.1,0.5 0.2,1.1 0.3,1.6 0,0.2 0.1,0.5 0.1,0.8 0.1,0.3 0.1,0.6 0.1,0.9 0.1,0.4 0.1,0.9 0.2,1.3 0,0.3 0.1,0.6 0.1,0.9 0,0.4 0.1,0.7 0.1,1.1 0,0.4 0.1,0.8 0.1,1.2 0.1,0.6 0.1,1.2 0.1,1.8 0,0.5 0.1,1 0.1,1.4 0,0.3 0,0.7 0,1 0.6,0.7 0.6,1.5 0.6,2.3 z"
     id="path1107" /><path
     class="st7"
     d="M 116.2,503.9"
     id="path1117" /><path
     class="st7"
     d="M 116.2,577.6"
     id="path1119" /><path
     class="st7"
     d="M 170.9,478.9"
     id="path1121" /><path
     class="st8"
     d="M 170.9,414.4"
     id="path1123" /></g>
</svg>
